<svg xmlns="http://www.w3.org/2000/svg" version="1.2" viewBox="0 0 2000 2000" width="500" height="500">
	<title>OJXLCW1</title>
	<style>
		.s0 { fill: #d6d6d6 } 
		.s1 { fill: #ffffff;stroke: #7091e6;stroke-miterlimit:10;stroke-width: 50 } 
	</style>
	<g id="Layer 1">
		<g id="&lt;Group&gt;">
			<g id="&lt;Group&gt;">
			</g>
			<g id="&lt;Group&gt;">
			</g>
		</g>
		<g id="&lt;Group&gt;">
			<g id="&lt;Group&gt;">
			</g>
			<g id="&lt;Group&gt;">
			</g>
		</g>
		<g id="&lt;Group&gt;">
			<g id="&lt;Group&gt;">
				<path id="&lt;Path&gt;" fill-rule="evenodd" class="s0" d="m1414.7 795.3c5.2-22.6 8-45.9 8-70 0-178.5-151.4-323.3-338.2-323.3-128.5 0-240.2 68.5-297.4 169.3-34.4-18-73.8-28.4-115.7-28.4-132.6 0-240 102.8-240 229.5 0 3.3 0.1 6.6 0.2 9.9h-0.7c-113.2 0-204.9 87.7-204.9 195.9 0 108.2 91.7 195.9 204.9 195.9h910.5c113.1 0 204.9-87.7 204.9-195.9 0-83.5-54.7-154.7-131.6-182.9z"/>
			</g>
			<g id="&lt;Group&gt;">
				<path id="&lt;Path&gt;" class="s1" d="m1318.5 738.7c4.8-21.1 7.5-43.1 7.5-65.6 0-167.3-141.9-302.9-316.9-302.9-120.3 0-225 64.2-278.6 158.7-32.2-17-69.1-26.6-108.4-26.6-124.2 0-224.8 96.2-224.8 214.9 0 3.1 0.1 6.2 0.2 9.3h-0.7c-106 0-192 82.2-192 183.5 0 101.4 86 183.5 192 183.5h853c106 0 191.9-82.1 191.9-183.5 0-78.2-51.2-144.9-123.2-171.3z"/>
			</g>
		</g>
		<g id="&lt;Group&gt;">
			<g id="&lt;Group&gt;">
			</g>
			<g id="&lt;Group&gt;">
			</g>
		</g>
		<g id="&lt;Group&gt;">
			<g id="&lt;Group&gt;">
			</g>
			<g id="&lt;Group&gt;">
			</g>
		</g>
		<g id="&lt;Group&gt;">
			<g id="&lt;Group&gt;">
			</g>
			<g id="&lt;Group&gt;">
			</g>
		</g>
		<g id="&lt;Group&gt;">
			<g id="&lt;Group&gt;">
			</g>
			<g id="&lt;Group&gt;">
			</g>
		</g>
		<g id="&lt;Group&gt;">
			<g id="&lt;Group&gt;">
			</g>
			<g id="&lt;Group&gt;">
			</g>
		</g>
		<g id="&lt;Group&gt;">
			<g id="&lt;Group&gt;">
			</g>
			<g id="&lt;Group&gt;">
			</g>
		</g>
	</g>
</svg>